<?xml version="1.0" encoding="utf-8"?>
<!-- Generator: Adobe Illustrator 18.1.1, SVG Export Plug-In . SVG Version: 6.00 Build 0)  -->
<svg version="1.1" id="Capa_1" xmlns="http://www.w3.org/2000/svg" xmlns:xlink="http://www.w3.org/1999/xlink" x="0px" y="0px"
	 viewBox="306 -114 1308 1308" enable-background="new 306 -114 1308 1308" xml:space="preserve">
<path fill="#FFFFFF" d="M1465.5,983.7l-257-267.3c66.1-78.6,102.3-177.4,102.3-280.3c0-240.4-195.6-436-436-436s-436,195.6-436,436
	s195.6,436,436,436c90.3,0,176.3-27.2,249.8-78.9l259,269.4c10.8,11.2,25.4,17.4,41,17.4c14.8,0,28.8-5.6,39.4-15.9
	C1486.5,1042.4,1487.2,1006.3,1465.5,983.7z M874.7,113.8c177.7,0,322.3,144.6,322.3,322.3s-144.6,322.3-322.3,322.3
	S552.4,613.8,552.4,436S697,113.8,874.7,113.8z"/>
</svg>
